<svg className={"  fill-current "}  viewBox="0 0 40 28"  xmlns="http://www.w3.org/2000/svg">
<path d="M28.3636 18.8422C28.3636 19.1933 28.2569 19.5365 28.0572 19.8284C27.8574 20.1203 27.5734 20.3478 27.2412 20.4821C26.909 20.6165 26.5434 20.6516 26.1907 20.5832C25.838 20.5147 25.514 20.3456 25.2598 20.0974C25.0055 19.8491 24.8323 19.5328 24.7622 19.1885C24.692 18.8442 24.728 18.4873 24.8656 18.1629C25.0032 17.8386 25.2363 17.5613 25.5353 17.3663C25.8343 17.1712 26.1858 17.0671 26.5454 17.0671C27.0276 17.0671 27.4901 17.2542 27.8311 17.587C28.172 17.9199 28.3636 18.3714 28.3636 18.8422ZM13.4545 17.0671C13.0949 17.0671 12.7434 17.1712 12.4444 17.3663C12.1454 17.5613 11.9124 17.8386 11.7747 18.1629C11.6371 18.4873 11.6011 18.8442 11.6713 19.1885C11.7414 19.5328 11.9146 19.8491 12.1689 20.0974C12.4232 20.3456 12.7471 20.5147 13.0998 20.5832C13.4525 20.6516 13.8181 20.6165 14.1503 20.4821C14.4825 20.3478 14.7665 20.1203 14.9663 19.8284C15.1661 19.5365 15.2727 19.1933 15.2727 18.8422C15.2727 18.3714 15.0811 17.9199 14.7402 17.587C14.3992 17.2542 13.9367 17.0671 13.4545 17.0671ZM39.9999 20.9723V25.2324C39.9999 25.8915 39.7317 26.5236 39.2544 26.9896C38.777 27.4557 38.1296 27.7175 37.4545 27.7175H2.54546C1.87036 27.7175 1.22292 27.4557 0.745552 26.9896C0.268187 26.5236 6.73834e-06 25.8915 6.73834e-06 25.2324V21.1729C-0.00229117 18.4219 0.583159 15.7008 1.71896 13.1832C2.85475 10.6656 4.51593 8.40704 6.59636 6.55169L1.77455 1.84423C1.66737 1.74672 1.5814 1.62914 1.52178 1.4985C1.46215 1.36786 1.43009 1.22683 1.42751 1.08382C1.42492 0.940821 1.45187 0.798775 1.50673 0.666159C1.5616 0.533544 1.64327 0.413076 1.74686 0.311942C1.85045 0.210808 1.97384 0.131079 2.10968 0.0775138C2.24552 0.0239482 2.39101 -0.00235737 2.53749 0.000165752C2.68397 0.00268887 2.82842 0.0339889 2.96224 0.0921995C3.09605 0.15041 3.21649 0.234338 3.31636 0.338977L8.29272 5.19554C11.6661 2.77268 15.7412 1.45978 19.9291 1.44661H20C24.2189 1.43528 28.3317 2.73662 31.7418 5.16182L36.6836 0.338977C36.8904 0.150849 37.1639 0.0484307 37.4465 0.0532989C37.7291 0.0581672 37.9988 0.169942 38.1986 0.365075C38.3985 0.560208 38.513 0.823464 38.518 1.09938C38.523 1.3753 38.4181 1.64233 38.2254 1.84423L33.4418 6.51441C33.6708 6.71854 33.8963 6.92623 34.1181 7.14101C35.9884 8.95094 37.4715 11.1058 38.4812 13.4802C39.491 15.8546 40.0072 18.4013 39.9999 20.9723ZM37.8181 20.9723C37.8181 16.3587 35.9408 11.934 32.5993 8.67174C29.2577 5.40943 24.7256 3.57669 20 3.57669H19.9363C10.1473 3.61041 2.18182 11.5041 2.18182 21.1729V25.2324C2.18182 25.3266 2.22013 25.4169 2.28833 25.4835C2.35652 25.55 2.44901 25.5874 2.54546 25.5874H37.4545C37.5509 25.5874 37.6434 25.55 37.7116 25.4835C37.7798 25.4169 37.8181 25.3266 37.8181 25.2324V20.9723Z" fill="white"/>
</svg>
