<svg width="40" height="38" viewBox="0 0 40 38" fill="none" xmlns="http://www.w3.org/2000/svg">
<path d="M34.1207 24.4967C32.7183 24.496 31.3622 24.9869 30.2992 25.88L25.2783 22.0669C25.681 21.2763 25.8903 20.4052 25.8898 19.5222C25.8893 19.292 25.8749 19.062 25.8466 18.8334L29.0254 17.8003C29.737 19.0072 30.8738 19.9203 32.2239 20.3696C33.574 20.8189 35.0454 20.7737 36.3639 20.2424C37.6824 19.711 38.7581 18.7299 39.3905 17.4817C40.0229 16.2335 40.169 14.8033 39.8015 13.4578C39.4339 12.1122 38.5779 10.943 37.3928 10.168C36.2077 9.39294 34.7745 9.06496 33.3601 9.24513C31.9456 9.42531 30.6466 10.1013 29.7049 11.1473C28.7632 12.1933 28.2431 13.5378 28.2415 14.9303C28.2419 15.1606 28.2563 15.3906 28.2846 15.6191L25.1059 16.6523C24.4839 15.5945 23.5321 14.7583 22.3891 14.2658C21.2462 13.7733 19.972 13.6502 18.7523 13.9144L17.1571 10.4131C18.3431 9.58738 19.1729 8.36123 19.4856 6.97226C19.7984 5.58329 19.5719 4.13043 18.85 2.89522C18.128 1.66002 16.9621 0.730442 15.5782 0.286644C14.1943 -0.157154 12.6909 -0.083569 11.3593 0.493138C10.0278 1.06984 8.96298 2.1086 8.37122 3.40811C7.77946 4.70761 7.70291 6.17531 8.15641 7.52677C8.6099 8.87823 9.56114 10.0172 10.8258 10.723C12.0904 11.4287 13.5784 11.651 15.0014 11.3468L16.5966 14.8481C15.4047 15.6757 14.5726 16.9083 14.2636 18.3041C13.9547 19.6998 14.1913 21.1579 14.9269 22.3921L9.42782 27.1753C8.25844 26.3206 6.80566 25.9203 5.35112 26.0518C3.89657 26.1834 2.54387 26.8375 1.55523 27.8874C0.56659 28.9373 0.0124418 30.3082 0.000206984 31.7342C-0.0120278 33.1603 0.518522 34.5401 1.48901 35.606C2.45949 36.6719 3.80079 37.348 5.25287 37.5034C6.70495 37.6587 8.16439 37.2821 9.34827 36.4467C10.5322 35.6112 11.3561 34.3764 11.6605 32.9816C11.9649 31.5867 11.7279 30.1313 10.9956 28.8973L16.4829 24.1141C17.5511 24.8979 18.8615 25.3018 20.197 25.259C21.5325 25.2162 22.8129 24.7292 23.8261 23.8788L28.847 27.6919C28.2805 28.8102 28.1026 30.0783 28.3403 31.3041C28.5779 32.5299 29.2182 33.6467 30.1642 34.4855C31.1101 35.3243 32.3103 35.8394 33.5829 35.9527C34.8555 36.066 36.1313 35.7715 37.2171 35.1136C38.3029 34.4558 39.1396 33.4704 39.6005 32.3068C40.0614 31.1432 40.1214 29.8647 39.7715 28.6648C39.4215 27.4649 38.6807 26.4089 37.6611 25.6569C36.6415 24.9048 35.3986 24.4975 34.1207 24.4967ZM34.1207 11.4864C34.8184 11.4864 35.5004 11.6884 36.0805 12.0668C36.6606 12.4453 37.1128 12.9831 37.3798 13.6124C37.6468 14.2417 37.7166 14.9342 37.5805 15.6022C37.4444 16.2703 37.1084 16.8839 36.6151 17.3656C36.1218 17.8472 35.4932 18.1752 34.8089 18.3081C34.1246 18.441 33.4154 18.3728 32.7708 18.1121C32.1262 17.8514 31.5753 17.41 31.1877 16.8437C30.8001 16.2773 30.5932 15.6115 30.5932 14.9303C30.5932 14.017 30.9648 13.141 31.6264 12.4951C32.2879 11.8493 33.1852 11.4864 34.1207 11.4864ZM10.2117 5.7466C10.2117 5.06546 10.4186 4.39962 10.8062 3.83327C11.1938 3.26693 11.7448 2.82551 12.3893 2.56485C13.0339 2.30419 13.7432 2.23599 14.4275 2.36887C15.1117 2.50176 15.7403 2.82976 16.2336 3.3114C16.727 3.79304 17.0629 4.40668 17.1991 5.07473C17.3352 5.74278 17.2653 6.43524 16.9983 7.06453C16.7313 7.69382 16.2792 8.23169 15.6991 8.61011C15.119 8.98853 14.437 9.19051 13.7393 9.19051C12.8037 9.19051 11.9065 8.82767 11.2449 8.18181C10.5834 7.53596 10.2117 6.65999 10.2117 5.7466ZM5.90026 35.2111C5.20257 35.2111 4.52055 35.0091 3.94045 34.6307C3.36035 34.2523 2.90821 33.7144 2.64122 33.0851C2.37422 32.4558 2.30437 31.7634 2.44048 31.0953C2.57659 30.4273 2.91256 29.8136 3.4059 29.332C3.89923 28.8504 4.52778 28.5224 5.21206 28.3895C5.89634 28.2566 6.60562 28.3248 7.25019 28.5855C7.89477 28.8461 8.4457 29.2875 8.83331 29.8539C9.22093 30.4202 9.42782 31.0861 9.42782 31.7672C9.42782 32.6806 9.05616 33.5566 8.39462 34.2024C7.73307 34.8483 6.83582 35.2111 5.90026 35.2111ZM20.0105 22.9661C19.3128 22.9661 18.6308 22.7641 18.0507 22.3857C17.4706 22.0073 17.0184 21.4694 16.7515 20.8401C16.4845 20.2109 16.4146 19.5184 16.5507 18.8503C16.6868 18.1823 17.0228 17.5687 17.5161 17.087C18.0095 16.6054 18.638 16.2774 19.3223 16.1445C20.0066 16.0116 20.7159 16.0798 21.3604 16.3405C22.005 16.6011 22.5559 17.0425 22.9436 17.6089C23.3312 18.1752 23.5381 18.8411 23.5381 19.5222C23.5381 20.4356 23.1664 21.3116 22.5049 21.9574C21.8433 22.6033 20.9461 22.9661 20.0105 22.9661ZM34.1207 33.6805C33.423 33.6805 32.741 33.4785 32.1609 33.1001C31.5808 32.7217 31.1287 32.1838 30.8617 31.5545C30.5947 30.9252 30.5248 30.2328 30.661 29.5647C30.7971 28.8967 31.133 28.283 31.6264 27.8014C32.1197 27.3197 32.7483 26.9917 33.4325 26.8589C34.1168 26.726 34.8261 26.7942 35.4707 27.0548C36.1152 27.3155 36.6662 27.7569 37.0538 28.3233C37.4414 28.8896 37.6483 29.5554 37.6483 30.2366C37.6483 31.15 37.2766 32.0259 36.6151 32.6718C35.9535 33.3176 35.0563 33.6805 34.1207 33.6805Z" fill="white"/>
</svg>
