<svg width="40" height="39" viewBox="0 0 40 39" fill="none" xmlns="http://www.w3.org/2000/svg">
<path d="M37.7376 1.47349C36.768 0.529872 35.4547 0 34.0857 0C32.7166 0 31.4034 0.529872 30.4338 1.47349L30.3942 1.51383L20.9439 11.7954C20.9125 11.8294 20.8743 11.8568 20.8317 11.8759C20.789 11.8949 20.7429 11.9053 20.696 11.9063C20.6493 11.908 20.6028 11.9 20.5595 11.8829C20.5162 11.8658 20.4771 11.84 20.4447 11.8072L18.8593 10.2611C18.1491 9.56786 17.186 9.17842 16.1817 9.17842C15.1774 9.17842 14.2143 9.56786 13.5041 10.2611L0.302913 23.1492C0.206885 23.2429 0.130705 23.3541 0.0787288 23.4765C0.0267528 23.5989 0 23.7301 0 23.8626C0 23.9951 0.0267528 24.1263 0.0787288 24.2487C0.130705 24.3711 0.206885 24.4823 0.302913 24.576L14.0739 38.0204C14.1698 38.1141 14.2837 38.1885 14.4091 38.2393C14.5345 38.29 14.6689 38.3161 14.8046 38.3161C14.9403 38.3161 15.0747 38.29 15.2001 38.2393C15.3255 38.1885 15.4394 38.1141 15.5353 38.0204L28.7365 25.1323C29.4466 24.4389 29.8455 23.4986 29.8455 22.5182C29.8455 21.5377 29.4466 20.5974 28.7365 19.9041L27.1529 18.3563C27.1198 18.3242 27.0938 18.2859 27.0763 18.2438C27.0588 18.2016 27.0503 18.1564 27.0513 18.1109C27.0524 18.0652 27.063 18.0201 27.0825 17.9785C27.102 17.9369 27.1301 17.8996 27.1649 17.8689L37.698 8.64271L37.7393 8.60406C38.7056 7.65723 39.248 6.37503 39.2477 5.03843C39.2474 3.70184 38.7043 2.41988 37.7376 1.47349ZM14.8037 35.881L11.4453 32.6023L15.5353 28.6093C15.7291 28.4201 15.838 28.1635 15.838 27.8959C15.838 27.6283 15.7291 27.3717 15.5353 27.1825C15.3415 26.9933 15.0787 26.887 14.8046 26.887C14.5305 26.887 14.2677 26.9933 14.0739 27.1825L9.9839 31.1755L7.31406 28.569L11.404 24.576C11.5978 24.3868 11.7067 24.1302 11.7067 23.8626C11.7067 23.595 11.5978 23.3384 11.404 23.1492C11.2102 22.96 10.9474 22.8537 10.6733 22.8537C10.3992 22.8537 10.1364 22.96 9.94259 23.1492L5.85261 27.1422L2.49422 23.8634L10.6724 15.8775L22.9837 27.8968L14.8037 35.881ZM36.2951 7.16047L25.7947 16.3682C25.551 16.5817 25.3544 16.8414 25.2169 17.1316C25.0794 17.4217 25.0039 17.7362 24.9951 18.0558C24.9862 18.3753 25.0441 18.6933 25.1653 18.9903C25.2865 19.2873 25.4685 19.557 25.7 19.7831L27.2837 21.3292C27.4437 21.4853 27.5707 21.6706 27.6573 21.8746C27.7439 22.0786 27.7885 22.2973 27.7885 22.5182C27.7885 22.739 27.7439 22.9577 27.6573 23.1617C27.5707 23.3657 27.4437 23.5511 27.2837 23.7072L24.4434 26.47L12.1339 14.4524L14.9638 11.6879C15.1237 11.5316 15.3135 11.4077 15.5225 11.3231C15.7315 11.2385 15.9555 11.195 16.1817 11.195C16.4079 11.195 16.6319 11.2385 16.8409 11.3231C17.0499 11.4077 17.2397 11.5316 17.3996 11.6879L18.9832 13.234C19.2148 13.46 19.4911 13.6376 19.7953 13.756C20.0995 13.8743 20.4252 13.9309 20.7525 13.9222C21.0798 13.9136 21.4019 13.8399 21.6991 13.7057C21.9963 13.5714 22.2624 13.3795 22.4811 13.1415L31.9124 2.8902C32.4936 2.32281 33.2818 2.00405 34.1037 2.00405C34.9256 2.00405 35.7139 2.32281 36.2951 2.8902C36.8762 3.45758 37.2027 4.22713 37.2027 5.02953C37.2027 5.83194 36.8762 6.60149 36.2951 7.16887V7.16047Z" fill="black"/>
</svg>
