<svg width="76" height="66" viewBox="0 0 76 66" fill="none" xmlns="http://www.w3.org/2000/svg">
<path d="M19.635 15.9221C26.8839 14.0655 34.1309 12.2105 41.3797 10.3539C42.0606 10.3156 47.1991 10.105 50.4697 13.834C53.407 17.1837 52.9793 21.5861 52.8759 22.6214C52.7725 23.6672 52.4214 25.0871 51.7173 27.9287C51.3306 29.4895 50.9759 30.7807 50.6479 31.9309C49.5447 35.8026 48.322 39.5751 47.3506 42.4584C47.2187 42.7072 46.1261 44.6996 43.6968 45.1555C41.1177 45.6392 39.2819 43.9688 39.0627 43.7634C37.8756 42.6446 37.2019 40.9689 37.4585 39.4132C37.676 38.089 38.519 37.1529 39.7756 35.7591C40.0233 35.4841 40.296 35.2492 41.2015 34.367C46.5093 29.1937 47.2686 28.5638 47.9744 27.0586C48.322 26.3174 49.1722 24.4398 48.8656 22.0124C48.4521 18.7393 46.2277 16.78 45.8356 16.4441C45.6787 16.3102 42.4099 13.6043 38.3497 14.356C36.0113 14.7893 34.5177 16.164 31.755 18.7062C31.01 19.3918 29.7463 20.6325 27.1209 23.0565C25.8554 24.224 25.5168 24.5059 24.9215 24.7896C22.5795 25.9102 19.8097 25.4769 18.3874 23.9265C16.6068 21.988 16.8029 18.1599 19.635 15.9221Z" fill="url(#paint0_linear_11_4574)"/>
<path d="M27.1208 23.0557C27.1601 21.5471 27.4435 18.9909 28.9032 16.2694C29.6767 14.8286 30.575 13.7237 31.3432 12.9232C34.5426 12.0619 37.7401 11.2006 40.9394 10.3375C41.4456 10.2644 46.4166 9.62926 50.1132 13.3113C54.1431 17.3239 52.9043 22.7269 52.8223 23.0557C52.1504 25.8277 51.4784 28.5979 50.8065 31.3698C49.9438 32.1564 48.7746 33.0577 47.2614 33.8442C44.2706 35.3981 41.4509 35.7096 39.7755 35.7583C43.5185 32.0467 47.2614 28.3334 51.0043 24.6218C53.4194 21.0981 52.9899 16.393 50.024 13.3983C47.1759 10.5219 42.6202 9.86244 38.9735 11.8322C35.022 15.5734 31.0723 19.3146 27.1208 23.0557Z" fill="url(#paint1_linear_11_4574)"/>
<path d="M33.9205 16.6526C34.1718 16.181 36.7634 11.5124 42.0926 10.8755C42.8127 10.7903 46.5449 10.3448 49.5785 12.9636C52.3768 15.3806 52.5835 18.6798 52.6085 19.4019C52.7315 22.9569 50.6461 26.364 47.2632 28.332C50.0152 24.5804 49.3539 19.3689 45.8355 16.4438C42.4437 13.6231 37.3088 13.684 33.9205 16.6526Z" fill="url(#paint2_linear_11_4574)"/>
<path d="M45.7465 8.87474C47.2846 8.52847 48.5911 8.27267 49.5785 8.0917C52.5461 7.54532 53.2787 7.55054 54.0344 7.9177C55.2553 8.51106 55.7508 9.66996 55.8167 9.83179C56.1269 10.5887 56.0752 11.2447 55.4603 14.008C55.2589 14.9111 54.9933 16.063 54.6582 17.4011C54.6047 16.7608 54.2501 13.2893 51.1826 10.8758C48.9939 9.15489 46.6305 8.91998 45.7465 8.87474Z" fill="url(#paint3_linear_11_4574)"/>
<path d="M50.5338 10.4108C51.204 10.8214 52.3803 11.6671 53.3214 13.1375C54.4122 14.8445 54.6065 16.4871 54.6475 17.2771C55.1893 15.0411 55.5707 13.3289 55.7276 12.5284C55.7828 12.2448 55.8577 11.8376 55.9058 11.3104C55.945 10.8649 55.9522 10.4978 55.9504 10.2507C55.4834 10.0123 54.3124 9.49374 52.7867 9.65731C51.744 9.76867 50.9669 10.1532 50.5338 10.4108Z" fill="url(#paint4_linear_11_4574)"/>
<path d="M2.25704 40.7179C1.00227 37.2743 -0.423611 31.8418 0.118223 25.2312C1.25715 11.3453 10.2455 2.48136 12.9511 0C12.0814 3.55847 9.75896 15.0813 16.0703 26.3622C16.8081 27.6795 19.7544 32.7344 25.6949 37.3248C33.8759 43.6482 42.3742 44.1981 42.2708 44.8071C42.1692 45.4074 33.9847 44.8924 2.25704 40.7179Z" fill="url(#paint5_linear_11_4574)"/>
<path d="M0.118241 25.2309C-0.0902936 28.0898 -0.721245 41.1109 8.94087 52.2891C17.4124 62.091 30.7265 66.9232 43.6967 64.9917C58.8574 62.7331 71.2554 51.574 74.8878 37.4984C78.4276 23.7796 72.2963 12.4935 70.6993 9.74414C68.8171 25.2883 57.2925 38.1144 41.9144 41.8486C25.9338 45.729 8.98009 39.021 0.118241 25.2309Z" fill="url(#paint6_linear_11_4574)"/>
<mask id="mask0_11_4574" style="mask-type:luminance" maskUnits="userSpaceOnUse" x="29" y="18" width="16" height="17">
<path d="M35.0791 31.4067L31.2738 34.544L30.4646 33.6096L32.8814 31.6155L32.4537 31.1213C32.3913 31.0482 32.2933 31.0134 32.1631 31.0169C32.033 31.0204 31.9279 31.0534 31.8512 31.1178L30.2436 32.4438L29.1991 31.2361C29.3506 31.2901 29.5199 31.3075 29.7089 31.2883C29.9156 31.2692 30.0742 31.2135 30.1865 31.1213L31.5108 30.0285C31.7496 29.8319 32.0099 29.7432 32.2915 29.7658C32.5731 29.7884 32.8048 29.905 32.9902 30.1173L33.7013 30.9386L34.2717 30.4688L35.0791 31.4067ZM37.5316 29.3847L33.9366 32.3481L33.6978 30.9421L35.334 29.5935C34.9187 29.1132 34.6959 28.7965 34.6674 28.6417C34.6495 28.5321 34.7226 28.1405 34.8884 27.4654L36.1485 28.9218L36.7224 28.4485L37.5316 29.3847ZM37.5049 31.4554C37.6082 31.5755 37.6546 31.7025 37.6421 31.84C37.6296 31.9757 37.5637 32.0957 37.4407 32.1967C37.3213 32.2959 37.1912 32.3394 37.0521 32.3272C36.9131 32.315 36.7901 32.2506 36.6868 32.1305C36.5852 32.014 36.5406 31.8869 36.5531 31.7512C36.5656 31.6137 36.6315 31.4972 36.7509 31.398C36.8739 31.297 37.004 31.2518 37.1448 31.264C37.2838 31.2744 37.4033 31.3388 37.5049 31.4554ZM41.2068 26.3552L36.3873 30.3296L36.1485 28.9236L37.6278 27.7038C37.1003 27.4845 36.7634 27.2896 36.6155 27.1174C36.4051 26.8738 36.3178 26.6006 36.357 26.2961C36.3962 26.0055 36.5424 25.7549 36.7955 25.5478C36.8668 25.4887 36.9773 25.4034 37.127 25.2903C37.2767 25.1789 37.3872 25.0937 37.4585 25.0345C37.8791 24.6882 38.0823 24.455 38.0716 24.3367L38.0217 23.8043L39.2017 25.1667L37.7544 26.3604C37.6724 26.4283 37.6671 26.5049 37.7419 26.5919C37.8524 26.7189 38.0271 26.7989 38.2677 26.832C38.5083 26.8651 38.6937 26.8285 38.8238 26.7206L40.3994 25.4208L41.2068 26.3552ZM42.335 24.7439C42.4295 24.8535 42.4705 24.9788 42.458 25.1232C42.4455 25.2677 42.3831 25.3842 42.2726 25.4765L40.0661 27.2949L39.8273 25.8906L41.0517 24.8814L38.036 21.396C37.8453 21.175 37.774 20.9244 37.8221 20.6443C37.9077 20.3746 37.9932 20.1031 38.0823 19.8299L42.335 24.7439ZM44.7198 23.4562L43.9017 24.1314L40.0946 19.7307C39.9128 19.5202 39.8451 19.2644 39.895 18.9616C39.9734 18.6884 40.0501 18.4152 40.1249 18.1455L44.7198 23.4562Z" fill="white"/>
</mask>
<g mask="url(#mask0_11_4574)">
<mask id="mask1_11_4574" style="mask-type:luminance" maskUnits="userSpaceOnUse" x="26" y="17" width="20" height="19">
<path d="M28.6358 34.1054C30.8513 36.2683 34.441 36.2683 36.6564 34.1054L43.8749 27.058C46.0904 24.8951 46.0904 21.3906 43.8749 19.2277C41.6595 17.0647 38.0698 17.0647 35.8544 19.2277L28.6358 26.275C26.4204 28.4379 26.4204 31.9424 28.6358 34.1054Z" fill="white"/>
</mask>
<g mask="url(#mask1_11_4574)">
<rect x="22.5758" y="14.9648" width="25.3094" height="25.7532" fill="url(#paint7_linear_11_4574)"/>
</g>
<mask id="mask2_11_4574" style="mask-type:luminance" maskUnits="userSpaceOnUse" x="33" y="19" width="13" height="17">
<path d="M34.9632 35.2364C32.4626 31.0567 32.7941 26.0018 35.6762 22.7078C38.6777 19.2764 43.162 19.2242 43.875 19.2277C44.2457 19.5931 45.2349 20.6702 45.4791 22.3598C45.7304 24.0877 44.964 25.4345 44.276 26.623C43.5292 27.9107 42.4758 29.2122 35.9435 34.4534C35.5247 34.7892 35.1807 35.0641 34.9632 35.2364Z" fill="white"/>
</mask>
<g mask="url(#mask2_11_4574)">
<rect x="28.8141" y="16.7041" width="19.2494" height="19.4889" fill="url(#paint8_linear_11_4574)"/>
</g>
</g>
<defs>
<linearGradient id="paint0_linear_11_4574" x1="24.1378" y1="3.92791" x2="61.6707" y2="27.0623" gradientUnits="userSpaceOnUse">
<stop stop-color="#35D373"/>
<stop offset="1" stop-color="#1C9E76"/>
</linearGradient>
<linearGradient id="paint1_linear_11_4574" x1="35.0593" y1="12.0529" x2="48.1439" y2="34.636" gradientUnits="userSpaceOnUse">
<stop stop-color="#C7F3CC"/>
<stop offset="0.6181" stop-color="#55C595"/>
</linearGradient>
<linearGradient id="paint2_linear_11_4574" x1="39.8338" y1="11.2607" x2="49.1064" y2="27.2644" gradientUnits="userSpaceOnUse">
<stop stop-color="#55C595"/>
<stop offset="0.6181" stop-color="#0A825E"/>
</linearGradient>
<linearGradient id="paint3_linear_11_4574" x1="47.7274" y1="5.86984" x2="58.3339" y2="12.5954" gradientUnits="userSpaceOnUse">
<stop stop-color="#35D373"/>
<stop offset="1" stop-color="#1C9E76"/>
</linearGradient>
<linearGradient id="paint4_linear_11_4574" x1="52.8814" y1="9.13172" x2="54.558" y2="14.9824" gradientUnits="userSpaceOnUse">
<stop stop-color="white" stop-opacity="0.2"/>
<stop offset="0.7496" stop-color="#C9F3CD"/>
</linearGradient>
<linearGradient id="paint5_linear_11_4574" x1="3.13424" y1="11.2772" x2="25.8578" y2="50.4964" gradientUnits="userSpaceOnUse">
<stop stop-color="#31CB74"/>
<stop offset="0.6181" stop-color="#007C4C"/>
</linearGradient>
<linearGradient id="paint6_linear_11_4574" x1="14.6953" y1="-0.480343" x2="80.429" y2="53.5338" gradientUnits="userSpaceOnUse">
<stop stop-color="#35D373"/>
<stop offset="1" stop-color="#1C9E76"/>
</linearGradient>
<linearGradient id="paint7_linear_11_4574" x1="27.4642" y1="10.2347" x2="54.6404" y2="26.321" gradientUnits="userSpaceOnUse">
<stop stop-color="#35D373"/>
<stop offset="1" stop-color="#1C9E76"/>
</linearGradient>
<linearGradient id="paint8_linear_11_4574" x1="32.532" y1="13.1245" x2="53.1473" y2="25.3887" gradientUnits="userSpaceOnUse">
<stop stop-color="#35D373"/>
<stop offset="1" stop-color="#1C9E76"/>
</linearGradient>
</defs>
</svg>
