<svg width="40" height="40" viewBox="0 0 40 40" fill="none" xmlns="http://www.w3.org/2000/svg">
<path d="M15.4739 30.1751C15.3964 30.4839 13.4861 37.4577 2.85502 37.4577C2.53025 37.4577 2.21879 37.3317 1.98914 37.1075C1.75949 36.8833 1.63048 36.5792 1.63048 36.2622C1.63048 25.8832 8.78588 24.0182 9.08997 23.9445C9.40281 23.8737 9.73161 23.9257 10.0056 24.0893C10.2795 24.2529 10.4767 24.515 10.5545 24.8192C10.6324 25.1233 10.5848 25.4452 10.422 25.7154C10.2591 25.9856 9.99404 26.1826 9.68387 26.2638C9.47978 26.3176 4.61428 27.6745 4.12038 35.0308C11.7411 34.5387 13.084 29.651 13.1003 29.5992C13.1791 29.2914 13.3799 29.0268 13.6585 28.8635C13.9372 28.7002 14.2708 28.6516 14.5861 28.7285C14.9014 28.8054 15.1725 29.0014 15.3398 29.2735C15.507 29.5455 15.5567 29.8712 15.478 30.1791L15.4739 30.1751ZM34.5624 16.5623L33.4685 17.6283V29.4179C33.4693 29.7841 33.3957 30.1467 33.2521 30.485C33.1085 30.8232 32.8976 31.1303 32.6318 31.3885L25.6213 38.2327C25.2464 38.5984 24.7747 38.8551 24.259 38.9742C23.7433 39.0932 23.2038 39.0698 22.7009 38.9067C22.198 38.7436 21.7514 38.4472 21.4112 38.0505C21.0709 37.6539 20.8503 37.1727 20.7741 36.6607L19.6598 28.86L10.4431 19.8559L2.45705 18.768C1.93136 18.6954 1.43679 18.4812 1.02881 18.1495C0.62083 17.8179 0.315584 17.3817 0.14731 16.8901C-0.0209635 16.3985 -0.0456091 15.8709 0.0761376 15.3663C0.197884 14.8618 0.461208 14.4004 0.836571 14.0338L7.84706 7.18959C8.11166 6.93028 8.42628 6.72474 8.77273 6.58487C9.11919 6.44499 9.4906 6.37354 9.86551 6.37466H21.9415L23.0334 5.30867C28.3622 0.106252 34.7829 -0.116908 37.2952 0.0285443C37.9904 0.07045 38.646 0.358847 39.1388 0.839516C39.6315 1.32018 39.9274 1.96002 39.9708 2.63872C40.1198 5.09149 39.8892 11.3559 34.5624 16.5623ZM2.79992 16.4009L10.5839 17.4609L19.4924 8.76566H9.86551C9.75743 8.7661 9.65394 8.80838 9.57775 8.88322L2.56929 15.7235C2.51718 15.7748 2.48034 15.839 2.46273 15.9092C2.44511 15.9794 2.44738 16.0529 2.46929 16.122C2.49004 16.1951 2.53251 16.2607 2.59135 16.3103C2.65019 16.36 2.72276 16.3915 2.79992 16.4009ZM31.0194 20.0193L22.1109 28.7166L23.1967 36.3199C23.2079 36.3931 23.2398 36.4618 23.2887 36.5182C23.3376 36.5747 23.4016 36.6168 23.4737 36.6397C23.5457 36.6627 23.6228 36.6656 23.6965 36.6482C23.7701 36.6308 23.8373 36.5937 23.8906 36.5411L30.899 29.6989C30.9757 29.6245 31.019 29.5234 31.0194 29.4179V20.0193ZM37.5258 2.78816C37.5179 2.69403 37.476 2.6057 37.4076 2.53892C37.3392 2.47213 37.2488 2.43124 37.1524 2.42353C34.8724 2.28067 32.5876 2.6157 30.4512 3.40612C28.3148 4.19655 26.3764 5.42408 24.7661 7.00628L12.7513 18.7282L20.8149 26.6005L31.3786 16.2893L32.8297 14.8727C34.4497 13.3016 35.7068 11.4106 36.5167 9.32634C37.3267 7.2421 37.6707 5.01287 37.5258 2.78816Z" fill="white"/>
</svg>
